<svg xmlns="http://www.w3.org/2000/svg" viewBox="0 0 512 512">
  <path fill="#4BB8A9" d="M355.29 341.65c-18.87 0-36.6-7.34-49.93-20.67l-61.14-61.14a21.19 21.19 0 0 0-29.94 0l-61.43 61.43c-13.33 13.33-31.06 20.67-49.93 20.67h-10.59l77.5 77.5c26.68 26.68 69.92 26.68 96.6 0l77.79-77.79h-10.59c-7.17 0-10.59 0-10.59 0h21.18z"/>
  <path fill="#4BB8A9" d="M102.93 170.64c13.33-13.33 31.06-20.67 49.93-20.67h10.59l-77.5-77.5c-26.68-26.68-69.92-26.68-96.6 0l77.79 77.79h-10.59c18.87 0 36.6 7.34 49.93 20.67l17.49 17.49a21.19 21.19 0 0 1 0 29.94l-17.49 17.49c-13.33 13.33-20.67 31.06-20.67 49.93 0 18.87 7.34 36.6 20.67 49.93l-77.79 77.79c-26.68-26.68-26.68-69.92 0-96.6l77.5-77.5h-10.59c-18.87 0-36.6-7.34-49.93-20.67l-17.49-17.49a21.19 21.19 0 0 1 0-29.94z"/>
  <path fill="#4BB8A9" d="M409.07 170.64c-13.33-13.33-31.06-20.67-49.93-20.67h-10.59l77.5-77.5c26.68-26.68 69.92-26.68 96.6 0l-77.79 77.79h10.59c-18.87 0-36.6 7.34-49.93 20.67l-17.49 17.49a21.19 21.19 0 0 0 0 29.94l17.49 17.49c13.33 13.33 20.67 31.06 20.67 49.93 0 18.87-7.34 36.6-20.67 49.93l77.79 77.79c26.68-26.68 26.68-69.92 0-96.6l-77.5-77.5h10.59c18.87 0 36.6-7.34 49.93-20.67l17.49-17.49a21.19 21.19 0 0 0 0-29.94z"/>
  <path fill="#4BB8A9" d="M214.28 170.35a21.19 21.19 0 0 1 29.94 0l61.14 61.14c13.33 13.33 31.06 20.67 49.93 20.67h10.59l-77.79-77.79c-26.68-26.68-69.92-26.68-96.6 0l-77.5 77.5h10.59c18.87 0 36.6-7.34 49.93-20.67z"/>
</svg>
