<svg xmlns="http://www.w3.org/2000/svg" viewBox="0 0 512 512">
  <path fill="#32BCAD" d="M346.5 371.4c-19.1 0-37.1-7.4-50.6-20.9L222.8 277c-7.8-7.8-21.5-7.8-29.3 0l-73.5 73.5c-13.5 13.5-31.5 20.9-50.6 20.9H56.1l93.1 93.1c27.9 27.9 73.2 27.9 101.2 0l93.4-93.4-13.5.3h16.2z"/>
  <path fill="#32BCAD" d="M69.4 140.6c13.5-13.5 31.5-20.9 50.6-20.9h13.3l-93.1 93.4c-27.9 27.9-27.9 73.2 0 101.2l93.1 93.1H120c-19.1 0-37.1-7.4-50.6-20.9l-73.5-73.5c-7.8-7.8-7.8-21.5 0-29.3l73.5-73.5c13.5-13.5 20.9-31.5 20.9-50.6s-7.4-37.1-20.9-50.6z"/>
  <path fill="#32BCAD" d="M346.5 119.7c19.1 0 37.1 7.4 50.6 20.9l73.5 73.5c7.8 7.8 7.8 21.5 0 29.3l-73.5 73.5c-13.5 13.5-20.9 31.5-20.9 50.6s7.4 37.1 20.9 50.6l-93.4-93.4c-27.9-27.9-27.9-73.2 0-101.2l93.4-93.4h-50.6z"/>
  <path fill="#32BCAD" d="M165.5 140.6c13.5-13.5 31.5-20.9 50.6-20.9h-13.3L109.4 213c-27.9 27.9-27.9 73.2 0 101.2l93.4 93.4h13.3c-19.1 0-37.1-7.4-50.6-20.9L92.2 313.2c-7.8-7.8-7.8-21.5 0-29.3l73.3-73.5c13.5-13.5 20.9-31.5 20.9-50.6s-7.4-37.1-20.9-50.6z"/>
</svg>
